<?xml version="1.0" encoding="iso-8859-1"?>
<!-- Generator: Adobe Illustrator 21.0.0, SVG Export Plug-In . SVG Version: 6.00 Build 0)  -->
<svg version="1.1" id="Capa_1" xmlns="http://www.w3.org/2000/svg" xmlns:xlink="http://www.w3.org/1999/xlink" x="0px" y="0px"
	 viewBox="0 0 512 512" style="enable-background:new 0 0 512 512;" xml:space="preserve">
<g>
	<path style="fill:#D1D4D1;" d="M512,52.966V476.69c0,19.501-15.809,35.31-35.31,35.31H35.31C15.809,512,0,496.191,0,476.69V52.966
		H512z"/>
	<path style="fill:#955BA5;" d="M512,35.31v35.31H0V35.31C0,15.809,15.809,0,35.31,0H476.69C496.191,0,512,15.809,512,35.31z"/>
	<path style="fill:#FF5364;" d="M52.966,26.483h-8.828c-4.875,0-8.828,3.952-8.828,8.828s3.952,8.828,8.828,8.828h8.828
		c4.875,0,8.828-3.952,8.828-8.828S57.841,26.483,52.966,26.483z"/>
	<path style="fill:#F0C419;" d="M91.63,27.189c-2.131-0.972-4.578-0.972-6.709,0c-1.069,0.448-2.055,1.075-2.913,1.854
		c-3.414,3.481-3.414,9.054,0,12.535c0.859,0.779,1.844,1.406,2.913,1.854c2.137,0.941,4.572,0.941,6.709,0
		c1.069-0.448,2.055-1.075,2.913-1.854c3.414-3.481,3.414-9.054,0-12.535C93.685,28.264,92.7,27.637,91.63,27.189z"/>
	<path style="fill:#65DDB9;" d="M117.319,29.043c-0.779,0.859-1.406,1.844-1.854,2.913c-0.942,2.137-0.942,4.572,0,6.709
		c0.448,1.069,1.075,2.055,1.854,2.913c3.481,3.414,9.054,3.414,12.535,0c0.779-0.859,1.406-1.844,1.854-2.913
		c0.495-1.047,0.737-2.196,0.706-3.354c0.021-3.586-2.13-6.829-5.442-8.204C123.659,25.731,119.844,26.496,117.319,29.043z"/>
	<path style="fill:#804169;" d="M467.862,26.483H167.724c-4.875,0-8.828,3.952-8.828,8.828s3.952,8.828,8.828,8.828h300.138
		c4.875,0,8.828-3.952,8.828-8.828S472.737,26.483,467.862,26.483z"/>
	<g>
		<path style="fill:#E64C3C;" d="M167.724,300.138H60.628l62.958-94.455v67.972c0,4.875,3.952,8.828,8.828,8.828
			s8.828-3.952,8.828-8.828v-97.103c0-0.291-0.141-0.53-0.168-0.821c-0.053-0.6-0.171-1.192-0.353-1.766
			c-0.159-0.525-0.369-1.034-0.627-1.518c-0.251-0.48-0.546-0.935-0.883-1.359c-0.379-0.472-0.808-0.901-1.28-1.28
			c-0.221-0.185-0.344-0.433-0.583-0.591c-0.238-0.159-0.494-0.168-0.733-0.3c-0.53-0.286-1.089-0.514-1.668-0.68
			c-0.555-0.171-1.126-0.286-1.704-0.344c-0.273-0.071-0.55-0.127-0.83-0.168c-0.291,0-0.547,0.141-0.83,0.168
			c-0.599,0.06-1.19,0.178-1.766,0.353c-0.521,0.16-1.026,0.367-1.51,0.618c-0.492,0.266-0.956,0.579-1.386,0.936
			c-0.46,0.38-0.882,0.803-1.262,1.262c-0.177,0.221-0.433,0.353-0.591,0.591L36.793,304.066c-1.807,2.709-1.977,6.193-0.44,9.064
			c1.536,2.871,4.528,4.664,7.785,4.663h123.586c4.875,0,8.828-3.952,8.828-8.828S172.599,300.138,167.724,300.138z"/>
		<path style="fill:#E64C3C;" d="M132.414,335.448c-4.875,0-8.828,3.952-8.828,8.828v26.483c0,4.875,3.952,8.828,8.828,8.828
			s8.828-3.952,8.828-8.828v-26.483C141.241,339.401,137.289,335.448,132.414,335.448z"/>
		<path style="fill:#E64C3C;" d="M459.034,300.138H351.938l62.958-94.455v67.972c0,4.875,3.952,8.828,8.828,8.828
			c4.875,0,8.828-3.952,8.828-8.828v-97.103c0-0.291-0.141-0.53-0.168-0.821c-0.053-0.6-0.171-1.192-0.353-1.766
			c-0.159-0.525-0.369-1.034-0.627-1.518c-0.25-0.48-0.546-0.935-0.883-1.359c-0.379-0.472-0.808-0.901-1.28-1.28
			c-0.221-0.185-0.344-0.433-0.583-0.591c-0.238-0.159-0.494-0.168-0.733-0.3c-0.53-0.286-1.089-0.514-1.668-0.68
			c-0.555-0.171-1.126-0.286-1.704-0.344c-0.273-0.071-0.55-0.127-0.83-0.168c-0.291,0-0.547,0.141-0.83,0.168
			c-0.599,0.058-1.19,0.177-1.765,0.353c-0.526,0.158-1.034,0.368-1.518,0.627c-0.491,0.259-0.952,0.57-1.377,0.927
			c-0.467,0.375-0.893,0.798-1.271,1.262c-0.177,0.221-0.433,0.353-0.591,0.591l-88.276,132.414
			c-1.808,2.71-1.977,6.196-0.438,9.068c1.538,2.872,4.534,4.663,7.792,4.659h123.586c4.875,0,8.828-3.952,8.828-8.828
			S463.91,300.138,459.034,300.138z"/>
		<path style="fill:#E64C3C;" d="M423.724,335.448c-4.875,0-8.828,3.952-8.828,8.828v26.483c0,4.875,3.952,8.828,8.828,8.828
			c4.875,0,8.828-3.952,8.828-8.828v-26.483C432.552,339.401,428.599,335.448,423.724,335.448z"/>
		<path style="fill:#E64C3C;" d="M273.655,167.724h-44.138c-19.501,0-35.31,15.809-35.31,35.31v141.241
			c0,19.501,15.809,35.31,35.31,35.31h44.138c19.501,0,35.31-15.809,35.31-35.31V203.034
			C308.966,183.533,293.157,167.724,273.655,167.724z M291.31,344.276c0,9.751-7.904,17.655-17.655,17.655h-44.138
			c-9.751,0-17.655-7.905-17.655-17.655V203.034c0-9.751,7.904-17.655,17.655-17.655h44.138c9.751,0,17.655,7.904,17.655,17.655
			V344.276z"/>
	</g>
	<g>
		<path style="fill:#C03A2B;" d="M344.276,423.724H167.724c-4.875,0-8.828,3.952-8.828,8.828s3.952,8.828,8.828,8.828h176.552
			c4.875,0,8.828-3.952,8.828-8.828S349.151,423.724,344.276,423.724z"/>
		<path style="fill:#C03A2B;" d="M308.966,459.034H203.034c-4.875,0-8.828,3.952-8.828,8.828s3.952,8.828,8.828,8.828h105.931
			c4.875,0,8.828-3.952,8.828-8.828S313.841,459.034,308.966,459.034z"/>
	</g>
</g>
<g>
</g>
<g>
</g>
<g>
</g>
<g>
</g>
<g>
</g>
<g>
</g>
<g>
</g>
<g>
</g>
<g>
</g>
<g>
</g>
<g>
</g>
<g>
</g>
<g>
</g>
<g>
</g>
<g>
</g>
</svg>
